<svg width="1011" height="775" viewBox="0 0 1011 775" fill="none" xmlns="http://www.w3.org/2000/svg">
<path d="M71.7734 774.481C32.5801 774.481 0.807617 742.708 0.807617 703.515V71.2747C0.807617 32.0814 32.5801 0.308838 71.7734 0.308838C110.967 0.308838 142.739 32.0813 142.739 71.2746V216.581C142.739 271.132 186.961 315.354 241.511 315.354H769.779C824.33 315.354 868.552 271.132 868.552 216.581V71.2747C868.552 32.0813 900.324 0.308838 939.517 0.308838C978.711 0.308838 1010.48 32.0813 1010.48 71.2746V703.515C1010.48 742.708 978.711 774.481 939.517 774.481C900.324 774.481 868.552 742.708 868.552 703.515V558.208C868.552 503.658 824.33 459.436 769.779 459.436H241.511C186.961 459.436 142.739 503.658 142.739 558.208V703.515C142.739 742.708 110.967 774.481 71.7734 774.481Z" fill="white"/>
</svg>
