<svg width="1642" height="184" viewBox="0 0 1642 184" fill="none" xmlns="http://www.w3.org/2000/svg">
<path d="M1177.56 0.943878L1366.63 0.87631C1374.57 0.873471 1381.01 7.31168 1381.01 15.2546C1381.01 23.1983 1374.57 29.638 1366.63 29.638L1177.56 29.6379C1169.64 29.6379 1163.21 23.2145 1163.21 15.2909C1163.21 7.36926 1169.63 0.946709 1177.56 0.943878Z" fill="white"/>
<path d="M1178.62 76.8978L1365.6 76.8979C1374.11 76.8979 1381.01 83.7975 1381.01 92.3087C1381.01 100.82 1374.11 107.719 1365.6 107.719L1178.62 107.719C1170.11 107.719 1163.21 100.82 1163.21 92.3086C1163.21 83.7974 1170.11 76.8978 1178.62 76.8978Z" fill="white"/>
<path d="M1177.45 154.979L1366.54 154.979C1374.53 154.979 1381.01 161.457 1381.01 169.447C1381.01 177.432 1374.53 183.9 1366.54 183.882L1177.42 183.449C1169.57 183.431 1163.21 177.063 1163.21 169.214C1163.21 161.352 1169.59 154.979 1177.45 154.979Z" fill="white"/>
<path fill-rule="evenodd" clip-rule="evenodd" d="M330.126 6.42651C330.785 8.49972 340.997 31.709 352.821 58.0004C364.645 84.2918 374.32 106.586 374.32 107.546C374.32 108.504 358.171 109.289 338.433 109.289H316.861C308.955 109.289 302.547 115.698 302.547 123.603C302.547 131.537 308.926 137.997 316.859 138.098L375.389 138.842C384.16 138.953 392.117 144.009 395.944 151.902L404.744 170.052C408.618 178.04 416.715 183.113 425.593 183.113H428.451C436.486 183.113 441.753 174.707 438.25 167.476L425.705 141.587C414.638 118.749 394.921 78.146 381.889 51.3583L364.536 15.6894C360.657 7.71585 352.429 2.65539 343.562 2.65539C330.29 2.65539 329.041 3.00603 330.126 6.42651Z" fill="white"/>
<path d="M16.7234 182.21C7.52937 182.21 0.0761719 174.757 0.0761719 165.563V17.2519C0.0761719 8.05795 7.52937 0.604736 16.7234 0.604736C25.9173 0.604736 33.3705 8.05794 33.3705 17.2519V51.3381C33.3705 64.1345 43.7441 74.5081 56.5406 74.5081H180.462C193.258 74.5081 203.632 64.1345 203.632 51.3381V17.2519C203.632 8.05795 211.085 0.604736 220.279 0.604736C229.473 0.604736 236.926 8.05794 236.926 17.2519V165.563C236.926 174.757 229.473 182.21 220.279 182.21C211.085 182.21 203.632 174.757 203.632 165.563V131.477C203.632 118.681 193.258 108.307 180.462 108.307H56.5406C43.7441 108.307 33.3705 118.681 33.3705 131.477V165.563C33.3705 174.757 25.9173 182.21 16.7234 182.21Z" fill="white"/>
<path d="M807.983 182.21C798.859 182.21 791.462 174.814 791.462 165.689V17.1258C791.462 8.00148 798.859 0.604736 807.983 0.604736C817.107 0.604736 824.504 8.00148 824.504 17.1258V165.689C824.504 174.814 817.107 182.21 807.983 182.21Z" fill="white"/>
<path d="M996.324 182.21C987.061 182.21 979.551 174.701 979.551 165.437V57.3214C979.551 44.5249 969.177 34.1513 956.381 34.1513H902.811C893.547 34.1513 886.037 26.6417 886.037 17.378C886.037 8.1144 893.547 0.604736 902.811 0.604736H1087.66C1096.92 0.604736 1104.43 8.1144 1104.43 17.378C1104.43 26.6417 1096.92 34.1513 1087.66 34.1513H1036.27C1023.47 34.1513 1013.1 44.5249 1013.1 57.3214V165.437C1013.1 174.701 1005.59 182.21 996.324 182.21Z" fill="white"/>
<path d="M1467.21 182.21C1463.43 182.21 1460.36 179.147 1460.36 175.368C1460.36 173.76 1460.93 172.202 1461.96 170.97L1516.22 106.3C1523.45 97.6867 1523.45 85.1284 1516.22 76.5151L1461.96 11.8449C1460.93 10.6127 1460.36 9.05558 1460.36 7.44705C1460.36 3.66815 1463.43 0.604736 1467.21 0.604736H1485.67C1492.49 0.604736 1498.97 3.61539 1503.38 8.83309L1533.12 44.0898C1542.41 55.0938 1559.37 55.0549 1568.61 44.0085L1597.95 8.9144C1602.35 3.6481 1608.86 0.604736 1615.72 0.604736H1634.38C1638.15 0.604736 1641.21 3.66584 1641.21 7.4419C1641.21 9.05348 1640.64 10.6133 1639.61 11.846L1585.19 76.4597C1577.92 85.0944 1577.93 97.7126 1585.22 106.336L1639.56 170.664C1640.63 171.931 1641.21 173.535 1641.21 175.193C1641.21 179.069 1638.07 182.21 1634.2 182.21H1615.66C1608.83 182.21 1602.35 179.197 1597.95 173.976L1568.38 138.901C1559.12 127.922 1542.21 127.922 1532.95 138.901L1503.38 173.976C1498.97 179.197 1492.49 182.21 1485.66 182.21H1467.21Z" fill="white"/>
<path d="M652.872 0.604736H521.957C512.693 0.604736 505.184 8.1144 505.184 17.378C505.184 26.6417 512.693 34.1513 521.957 34.1513H651.359C651.604 34.1513 651.835 34.1799 652.051 34.2372C653.112 34.5172 653.922 35.529 654.091 36.6123C654.119 36.7916 654.133 36.9802 654.133 37.1781V69.968C654.133 70.2382 654.107 70.4997 654.055 70.7525C653.834 71.8264 653.008 72.7839 651.925 72.9528C651.745 72.9808 651.557 72.9948 651.359 72.9948H566.736C557.472 72.9948 549.962 80.5044 549.962 89.7681C549.962 99.0317 557.472 106.541 566.736 106.541H658.421C658.73 106.541 659.028 106.587 659.314 106.677C660.359 107.009 661.334 107.815 661.614 108.875C661.672 109.092 661.7 109.323 661.7 109.568V145.637C661.7 145.946 661.655 146.243 661.564 146.529C661.233 147.575 660.28 148.364 659.206 148.586C658.953 148.638 658.691 148.664 658.421 148.664H566.736C557.472 148.664 549.962 156.173 549.962 165.437C549.962 174.701 557.472 182.21 566.736 182.21H659.935C666.324 182.21 672.21 180.613 677.591 177.418C682.972 174.223 687.259 170.019 690.454 164.807C693.649 159.426 695.247 153.54 695.247 147.15V108.055C695.247 103.851 694.322 99.6471 692.472 95.4432C691.512 93.0426 690.36 90.6969 689.016 88.406C687.116 85.1682 686.811 81.2377 687.428 77.5349C687.764 75.5171 687.932 73.4151 687.932 71.2291V35.6647C687.932 29.2749 686.335 23.4736 683.14 18.2608C679.945 12.8799 675.657 8.59202 670.276 5.3971C665.063 2.20219 659.262 0.604736 652.872 0.604736Z" fill="white"/>
</svg>
